<svg xmlns="http://www.w3.org/2000/svg" xmlns:xlink="http://www.w3.org/1999/xlink"><symbol id="icon-bread-1" viewBox="0 0 51.48 49.48"><path d="M50.88 0h-.24c-2.31 7.69-2.93 17.07-9.36 20.64-1.19-3.35-4.11-4.89-7.44-6.36-2.12-.93-4.55-2.56-6.6-2.64a2.18 2.18 0 0 0-1.5.32 2.18 2.18 0 0 0-1.5-.32c-2 .08-4.49 1.71-6.6 2.64-3.33 1.47-6.25 3-7.44 6.36C3.76 17.07 3.15 7.69.84 0H.6A14 14 0 0 0 0 2.4c0 1.92.54 21.46 1.92 28.44 1.24 6.29 6.08 10.83 10.8 13.8 3.29 2.07 8.51 4.84 13 4.84s9.73-2.77 13-4.84c4.72-3 9.56-7.51 10.8-13.8 1.38-7 1.92-26.52 1.92-28.44a14 14 0 0 0-.56-2.4zM37 28.06c-.25 1.55-1.66 3.38-3.36 3.48-3 .16-4.51-4.42-7.86-4.38s-4.88 4.54-7.86 4.38c-1.7-.1-3.12-1.93-3.36-3.48a7.55 7.55 0 0 1 1.68-5.64c1.1-1.07 2.82-.93 4.68-1.2a8.68 8.68 0 0 0 4.86-1.95 8.68 8.68 0 0 0 4.86 1.95c1.86.27 3.58.13 4.68 1.2A7.55 7.55 0 0 1 37 28.06z" fill="#826550"/></symbol><symbol id="icon-bread-2" viewBox="0 0 57.68 68.64"><path d="M51.6 22.2c.12-1.7.47-3.51.72-5.4.68-5.43 1.6-11.67-.12-16.8H52c-1.36 3.74-1.3 8.35-2.2 12.36a19.62 19.62 0 0 1-3.24 7.56c-.53.69-1.06 1.55-1.92 1.8-.64-3.92-4.28-4.94-7.64-6.36-2.13-.89-4-2-6.12-2.16a11.27 11.27 0 0 0-2 .23 11.27 11.27 0 0 0-2-.23c-2.15.15-4 1.27-6.12 2.16-3.39 1.42-7 2.44-7.68 6.36-.86-.25-1.39-1.11-1.92-1.8a19.93 19.93 0 0 1-3.24-7.56C7 8.35 7.05 3.74 5.72 0h-.24c-1.72 5.13-.82 11.37-.12 16.8.25 1.89.6 3.7.72 5.4.79 11.05-6.95 23.12-6 28.92.93 7.53 8.4 9.4 14.16 12.36 4.35 2.24 8.31 5 13.32 5.16h2.56c5-.21 9-2.93 13.32-5.16 5.76-3 13.23-4.83 14.16-12.36.95-5.8-6.79-17.87-6-28.92zM28.84 26a36.55 36.55 0 0 1-7.16-.51c.66-2.05 4-1.56 7.08-1.56h.16c3 0 6.42-.49 7.08 1.56a36.5 36.5 0 0 1-7.16.51z" fill="#826550"/></symbol><symbol id="icon-bread-3" viewBox="0 0 62.4 78.49"><path d="M62.4 42c0-5.21-2.37-7.77-3.6-10a55.8 55.8 0 0 1-4.2-17.6C54.53 9.49 52.91 2 51.72 0c-.87 0-1.52 7.78-2.28 11.64-1.43 7-3.77 8.93-4.44 9-.76-2.81-4.11-7.36-13.68-7.73h-.25c-9.56.36-12.92 4.92-13.67 7.73-.68-.07-3-2-4.44-9C12.2 7.78 11.54 0 10.68 0 9.49 2 7.87 9.49 7.8 14.4A56.36 56.36 0 0 1 3.6 32C2.37 34.23 0 36.79 0 42c0 3.74 5.2 7.2 5.64 11.4.12 1.22 0 2.35.12 3.36 2 17.48 17.87 21.73 25.44 21.73s23.44-4.25 25.44-21.73c.15-1 0-2.14.12-3.36.44-4.2 5.64-7.65 5.64-11.4zM33.24 26.76a21.39 21.39 0 0 0-4.08 0c-1.73.34-5.76 1-5.76-1.08 0-1.07 6.72-2.29 7.8-2.29s7.8 1.22 7.8 2.29c0 2.07-4 1.42-5.76 1.08z" fill="#826550"/></symbol><symbol id="icon-bread-4" viewBox="0 0 57 97.68"><path d="M51.12 15.24C50.73 9.79 50.51 4.39 48.6 0c-.76 0-1.53 7.31-2.28 10.92-1.48 7.14-3.71 8.28-4.44 8.28-.88-3.86-4.38-4.2-7.8-5.88a11.16 11.16 0 0 0-3.6-1.2 13.32 13.32 0 0 0-2 .12 13.32 13.32 0 0 0-2-.12 11.16 11.16 0 0 0-3.6 1.2c-3.42 1.64-6.94 2-7.8 5.88-.73 0-3-1.14-4.44-8.28C9.93 7.31 9.16 0 8.4 0 6.49 4.39 6.27 9.79 5.88 15.24 5 38.78 0 51.53 0 62.4c0 26.07 11.71 35.28 28.5 35.28S57 88.47 57 62.4c0-10.87-5-23.62-5.88-47.16zM34.44 25c-2.79 1.17-5.35-.71-5.88-.72h-.12c-.53 0-3.09 1.89-5.88.72-.78-3.58 2.4-4 5.94-3.91 3.55-.17 6.73.29 5.94 3.91z" fill="#826550"/></symbol><symbol id="icon-bread-5" viewBox="0 0 44.66 104.78"><path d="M43.39 0h-.12c-2.82 21.53-5.38 22.56-7 22.68s-3.64-1.77-4.92-2.52a15.93 15.93 0 0 0-9.06-2.54 15.93 15.93 0 0 0-9.06 2.54c-1.28.75-3.5 2.63-4.92 2.52C6.77 22.56 4.2 21.53 1.39 0h-.12C-.8 12.21-.29 50.2 2.47 63.6c2.61 18.52 10.11 35.1 13.44 39.6.68 1 3.53 1.57 6.42 1.58s5.74-.54 6.42-1.58c3.33-4.5 10.83-21.08 13.44-39.6C45 50.2 45.46 12.21 43.39 0zM22.33 28.15a99.13 99.13 0 0 0-10.14.53c1.13-1.75 9-3.24 10.14-3.45 1.15.21 9 1.7 10.14 3.45a99.28 99.28 0 0 0-10.14-.53z" fill="#826550"/></symbol><symbol id="icon-fb" viewBox="0 0 36 36"><path class="cls-1" d="M28.07 6.42h-.6c-.36-.11-.83-.23-1.4-.36a7.82 7.82 0 0 0-1.85-.21 4.52 4.52 0 0 0-3.22.86q-.84.86-.84 3.3v.2h6.22v5.48h-5.94v19.75h-8.11V15.69H8.87v-5.48h3.46v-.69q0-4.63 2.46-6.94T22.23.26c1.2 0 2.29 0 3.26.13s1.83.19 2.58.32z"/></symbol><symbol id="icon-in" viewBox="0 0 512 512"><path class="st0" d="M480 0H32C14.3 0 0 14.3 0 32v448c0 17.7 14.3 32 32 32h448c17.7 0 32-14.3 32-32V32c0-17.7-14.3-32-32-32zM192 256s5.1-64 64-64 64 64 64 64 1.8 64-64 64-64-64-64-64zm256 192H64V224h68.5c-18.6 68.2 21.5 138.6 89.7 157.2 68.2 18.6 138.6-21.5 157.2-89.7 6-22.1 6-45.4 0-67.5H448v224zm0-288h-96V64h96v96z"/></symbol><symbol id="icon-vk" viewBox="0 0 23 26"><path class="cls-1" d="M22 17.82a7 7 0 0 1-.71 3.18 6.59 6.59 0 0 1-2 2.34 9.39 9.39 0 0 1-3.21 1.56 17.77 17.77 0 0 1-4.45.46H.86V.68h9.6a35 35 0 0 1 4.37.19 9.27 9.27 0 0 1 2.75.88 4.92 4.92 0 0 1 2.1 1.92 5.43 5.43 0 0 1 .69 2.75 5.43 5.43 0 0 1-.95 3.16 6.16 6.16 0 0 1-2.67 2.14v.13a6.89 6.89 0 0 1 3.84 2A5.58 5.58 0 0 1 22 17.82zM13.85 7.66a2.79 2.79 0 0 0-.31-1.22 1.94 1.94 0 0 0-1.09-.92 5.51 5.51 0 0 0-1.73-.29H7.21v5.23h3.58a5 5 0 0 0 1.67-.33 2.09 2.09 0 0 0 1.13-1 3.44 3.44 0 0 0 .26-1.47zm1.54 10.06a3 3 0 0 0-.46-1.81 2.7 2.7 0 0 0-1.55-1 8.16 8.16 0 0 0-2.05-.23H7.21v6.16h4.3a5.53 5.53 0 0 0 2.14-.44A2.6 2.6 0 0 0 15 19.31a3.28 3.28 0 0 0 .39-1.59z"/></symbol></svg>