<svg xmlns="http://www.w3.org/2000/svg" xmlns:xlink="http://www.w3.org/1999/xlink"><defs><style>.cls-1{fill:#a4c639}</style></defs><symbol id="icon-android" viewBox="0 0 42.08 47.04"><path class="cls-1" d="M34.14 14H7.94v19.1a3.59 3.59 0 003.31 3.62v7.44a2.89 2.89 0 005.77 0v-7.42h8.06v7.42a2.89 2.89 0 005.77 0v-7.44a3.6 3.6 0 003.32-3.62V14.34l-.03-.34z"/><path id="c-4-9-2-9-2-9" class="cls-1" d="M2.89 15.68a2.88 2.88 0 012.88 2.88v12.38a2.88 2.88 0 01-2.88 2.89A2.89 2.89 0 010 30.94V18.56a2.88 2.88 0 012.89-2.88z"/><path id="c-4-1-7-3-8-4" class="cls-1" d="M39.2 15.68a2.88 2.88 0 012.88 2.88v12.38a2.88 2.88 0 01-2.88 2.89 2.89 2.89 0 01-2.89-2.89V18.56a2.88 2.88 0 012.89-2.88z"/><path class="cls-1" d="M8 12h26a10.48 10.48 0 00-3.19-7.28L33.32.46A.31.31 0 0033.2 0a.31.31 0 00-.41.11l-2.37 4.15A16.15 16.15 0 0021 .86a16.41 16.41 0 00-9.37 3.4L9.3.15A.32.32 0 008.88 0a.32.32 0 00-.11.42l2.44 4.23A10.52 10.52 0 008 12zm17.32-5.2a1.5 1.5 0 013 0 1.5 1.5 0 01-3 0zm-11.14 0a1.5 1.5 0 013 0 1.5 1.5 0 01-3 0z"/></symbol><symbol id="icon-apple" viewBox="0 0 46.21 56.75"><path d="M38.59 30.15a12.53 12.53 0 007.62 11.48 30.59 30.59 0 01-3.93 8.07c-2.36 3.46-4.82 6.91-8.68 7s-5-2.25-9.37-2.25-5.7 2.18-9.3 2.32S8.36 53 6 49.56c-4.87-7-8.6-19.91-3.6-28.59a13.91 13.91 0 0111.75-7.11c3.66-.07 7.12 2.46 9.36 2.46s6.45-3.05 10.87-2.6a13.28 13.28 0 0110.38 5.63c-.27.17-6.2 3.62-6.14 10.8M31.45 9.06A12.44 12.44 0 0034.4 0 12.75 12.75 0 0026 4.3c-1.83 2.12-3.44 5.52-3 8.78 3.19.25 6.44-1.62 8.42-4" fill="#fff"/></symbol><symbol id="icon-contrast" viewBox="0 0 31.92 31.92"><path d="M16 4A12 12 0 114 16 12 12 0 0116 4m0-4a16 16 0 1016 16A16 16 0 0016 0zm0 24.29a8.52 8.52 0 000-17"/></symbol><symbol id="icon-crop" viewBox="0 0 48 48"><path d="M0 0h48v48H0z" fill="none"/><path d="M34 30h4V14a4 4 0 00-4-4H18v4h16zm-20 4V2h-4v8H2v4h8v20a4 4 0 004 4h20v8h4v-8h8v-4z"/></symbol><symbol id="icon-email" viewBox="0 0 17.99 13.97"><path d="M14.91 1.81c1.2-1 .91-1.81-.65-1.81H3.73c-1.56 0-1.85.82-.66 1.81l3.75 3.12a3.53 3.53 0 004.35 0z"/><path d="M11.91 7L9.7 8.88a1.09 1.09 0 01-.26.12l-.1.05a1.28 1.28 0 01-.34.09l-.33-.06L8.55 9a1.16 1.16 0 01-.24-.14L6.08 7l-3.9-3.2C1 2.8 0 3.26 0 4.82v6.31A2.85 2.85 0 002.83 14h12.32A2.85 2.85 0 0018 11.13V4.82c0-1.56-1-2-2.18-1z"/></symbol><symbol id="icon-fb" viewBox="0 0 8.67 18.94"><path d="M6.27 3.36h2.4V0H5.8C2.66.18 1.54 2.39 2 6.12H0v3.51h2v9.31h3.8V9.63h2.85V6.12H5.79c-.02-1.05-.04-2.41.48-2.76z"/></symbol><symbol id="icon-fill" viewBox="0 0 48 48"><path d="M0 0h48v48H0z" fill="none"/><path d="M33.12 17.88L15.24 0l-2.83 2.83 4.76 4.76L6.88 17.88a3 3 0 000 4.24l11 11a3 3 0 004.24 0l11-11a3 3 0 000-4.24zM10.41 20L20 10.42 29.59 20zM38 23s-4 4.33-4 7a4 4 0 008 0c0-2.67-4-7-4-7zM0 40h48v3H0z"/></symbol><symbol id="icon-html" viewBox="0 0 154.38 195.33"><path d="M78 .59L77.19.5.5 8.54v140.57l76.69 45.63 76.69-45.63V8.54zm65.85 142.82l-66.66 39.66-66.66-39.66V85.79l66.38 39.51.11 7.16-45.54-27.1-.06 7 45.71 27.47.11 7.35L31.54 120l-.06 7 45.71 27.47 46.15-27.61v-7h0V97.1l20.56-12.28zm0-66.06l-18.29 10.74-8.42 5L77 69.17l-.06 7 34.31 20.41-.3.18-.74.43-4.88 2.81L77 83.16l-.06 7 22.36 13.3-5.3 3.48-.12.07L77 97.06l-.06 7L88 110.54l-11.29 6.78-66-39.26 66.11-39.75h0zm0-7l-67-39.51h0L10.53 70.31V17.58l66.66-7 66.66 7z" stroke="#231f20" stroke-miterlimit="10"/></symbol><symbol id="icon-ms" viewBox="0 0 43.92 41.99"><path id="path5058" d="M20.87 20H0V0h20.87z" fill="#f05423"/><path id="path5060" d="M43.92 20H23.05V0h20.87z" fill="#84c441"/><path id="path5062" d="M20.87 42H0V22h20.87z" fill="#2dabe2"/><path id="path5064" d="M43.92 42H23.05V22h20.87z" fill="#f9bc15"/></symbol><symbol id="icon-tel" viewBox="0 0 19.7 19.7"><path d="M9.85 0c-3.51 0-7 .63-8.3 1.88A6.82 6.82 0 000 5.91a1.59 1.59 0 000 .17.82.82 0 00.82.82L4 6.64h.08a.81.81 0 00.8-.82V4.19a.9.9 0 01.9-.91h8a.91.91 0 01.91.91V5.8a.82.82 0 00.8.82h.09l3.22.26a.82.82 0 00.82-.82 1.59 1.59 0 000-.17 6.89 6.89 0 00-1.53-4C16.87.63 13.36 0 9.85 0zm0 10.67a1.64 1.64 0 101.64 1.64 1.63 1.63 0 00-1.64-1.64zM8.62 7V6a1 1 0 10-2 0v1L1 12.89a2 2 0 00-.62 1.47V16a1.65 1.65 0 001.64 1.65h.41v1a1 1 0 102.05 0v-1h10.7v1a1 1 0 102.05 0v-1h.41A1.64 1.64 0 0019.28 16v-1.64a2 2 0 00-.61-1.47L13.13 7V6a1 1 0 10-2.05 0v1zm1.23 2a3.28 3.28 0 11-3.28 3.28A3.28 3.28 0 019.85 9z"/></symbol><symbol id="icon-tw" viewBox="0 0 17.5 14.66"><path d="M11.28.15A3.31 3.31 0 0115 1.3c.69-.22 1.37-.47 2.07-.69a2.27 2.27 0 01-.88 1.73 1.62 1.62 0 001.34-.48 2.89 2.89 0 01-1.61 2c-.24 6.59-3.27 11-10.38 10.82h-.49c-.42 0-4.29-.45-5-1.84a6.64 6.64 0 004.84-1.15c-1-.3-2.77-.47-3.07-2.88A2.13 2.13 0 003 8.9C1.76 8.07.38 7.37.46 5.22a2 2 0 001.38.46C1.12 5.44-.19 2.4.92.84c1.87 1.81 3.85 3.52 7.37 3.69C8.51 2.29 9.46.79 11.28.15z" id="W6EeEF"/></symbol><symbol id="icon-yt" viewBox="0 0 14.64 13.96"><path d="M1.78 13.78A1.14 1.14 0 010 12.67V1.29A1.14 1.14 0 011.78.18l12.13 5.93c1 .48 1 1.26 0 1.74z"/></symbol><symbol id="logo-white-desktop" viewBox="0 0 146.3 40.37"><path d="M71.87 18.66a1.29 1.29 0 011.26-1.29h7.18c5.09 0 8.44 2.71 8.44 7.15v.06c0 4.86-4.06 7.38-8.86 7.38h-5.47v6.82a1.28 1.28 0 11-2.55 0V18.66zm8.12 11c3.73 0 6.18-2 6.18-5v-.06c0-3.22-2.41-4.89-6-4.89h-5.7v9.91zM93.6 18.5a1.28 1.28 0 112.55 0v20.28a1.28 1.28 0 11-2.55 0zm9.14.03a1.28 1.28 0 011.26-1.25h.35a1.55 1.55 0 011.29.74l13.69 17.45v-17a1.24 1.24 0 112.48 0v20.35a1.14 1.14 0 01-1.16 1.18h-.13a1.71 1.71 0 01-1.32-.78l-14-17.86v17.46a1.26 1.26 0 01-1.2 1.25 1.24 1.24 0 01-1.22-1.25V18.53zm25.43-.03a1.28 1.28 0 112.55 0v12.33l12.84-13.17a1.48 1.48 0 011-.45 1.28 1.28 0 011.23 1.26 1.29 1.29 0 01-.42.9l-8 7.92L146 37.85a1.44 1.44 0 01.35.94 1.31 1.31 0 01-1.35 1.28 1.24 1.24 0 01-1-.58L135.58 29l-4.86 4.86v4.9a1.27 1.27 0 11-2.54 0V18.5zm-85.08.81h.73a2.48 2.48 0 00-2.13-1.23 2 2 0 01-1.89-1.35 12.09 12.09 0 00-2.09.82h.19a2 2 0 012 2 2.83 2.83 0 010 .29 8.8 8.8 0 013.19-.53z"/><path d="M60.46 28L55.29 6.65C54.93 4.3 52.69 0 46.69 0a1.5 1.5 0 000 3c4.85 0 5.57 3.73 5.64 4.14l4.76 19.7H55a12 12 0 00-5.3-8.52 2.5 2.5 0 00-1.53 2.3 2.06 2.06 0 010 .26 9.21 9.21 0 014 7.47 9.3 9.3 0 01-.14 1.5 9 9 0 01-17.79 0 9.3 9.3 0 01-.14-1.5 9.34 9.34 0 01.95-4 2 2 0 01-1.86-2 .71.71 0 00-.19-.49 11.84 11.84 0 00-1.79 5h-1.86a12 12 0 00-23.86 0H3.42L8.19 7.14C8.25 6.73 9 3 13.83 3a1.5 1.5 0 000-3c-6 0-8.24 4.3-8.6 6.65L.05 28a1.42 1.42 0 001.43 1.82h4a12.65 12.65 0 00.38 1.83.75.75 0 00.1-.36 2 2 0 012-2 1.85 1.85 0 01.48.07 9.1 9.1 0 01-.07-1.05 9.29 9.29 0 01.13-1.5 9 9 0 0117.8 0 9.29 9.29 0 01.13 1.5 9.06 9.06 0 01-9 9A9 9 0 0112 35.58a2 2 0 01-1.3.49.75.75 0 00-.74.75 2 2 0 01-.18.81 11.91 11.91 0 007.61 2.74 12 12 0 0011.96-10.52h1.81a12 12 0 0023.86 0h4A1.41 1.41 0 0060.46 28z"/></symbol><symbol id="logo-white-mobile" viewBox="0 0 74.43 22.86"><path d="M0 1.45A1.29 1.29 0 011.26.16h7.18c5.08 0 8.43 2.71 8.43 7.15v.06c0 4.86-4.05 7.38-8.85 7.38H2.54v6.82a1.29 1.29 0 01-1.28 1.29A1.29 1.29 0 010 21.57zm8.11 11c3.74 0 6.19-2 6.19-5v-.04c0-3.22-2.42-4.9-6.06-4.9h-5.7v9.92zM21.73 1.29a1.27 1.27 0 112.54 0v20.28a1.27 1.27 0 11-2.54 0V1.29zm9.14.03A1.28 1.28 0 0132.13.06h.35a1.57 1.57 0 011.29.74l13.68 17.45v-17a1.24 1.24 0 112.48 0V21.6a1.14 1.14 0 01-1.16 1.19h-.13a1.76 1.76 0 01-1.32-.79l-14-17.87V21.6a1.24 1.24 0 11-2.48 0zm25.43-.03a1.27 1.27 0 112.54 0v12.33L71.69.45a1.43 1.43 0 011-.45 1.27 1.27 0 011.22 1.26 1.25 1.25 0 01-.42.9l-8 7.92 8.56 10.56a1.39 1.39 0 01.36.93 1.31 1.31 0 01-1.29 1.29 1.22 1.22 0 01-1-.58l-8.4-10.46-4.86 4.86v4.89a1.28 1.28 0 11-2.55 0V1.29z"/></symbol><symbol id="logo-white-tablet" viewBox="0 0 146.3 40.37"><path d="M71.87 18.66a1.29 1.29 0 011.26-1.29h7.18c5.09 0 8.44 2.71 8.44 7.15v.06c0 4.86-4.06 7.38-8.86 7.38h-5.47v6.82a1.28 1.28 0 11-2.55 0V18.66zm8.12 11c3.73 0 6.18-2 6.18-5v-.06c0-3.22-2.41-4.89-6-4.89h-5.7v9.91zM93.6 18.5a1.28 1.28 0 112.55 0v20.28a1.28 1.28 0 11-2.55 0zm9.14.03a1.28 1.28 0 011.26-1.25h.35a1.55 1.55 0 011.29.74l13.69 17.45v-17a1.24 1.24 0 112.48 0v20.35a1.14 1.14 0 01-1.16 1.18h-.13a1.71 1.71 0 01-1.32-.78l-14-17.86v17.46a1.26 1.26 0 01-1.2 1.25 1.24 1.24 0 01-1.22-1.25V18.53zm25.43-.03a1.28 1.28 0 112.55 0v12.33l12.84-13.17a1.48 1.48 0 011-.45 1.28 1.28 0 011.23 1.26 1.29 1.29 0 01-.42.9l-8 7.92L146 37.85a1.44 1.44 0 01.35.94 1.31 1.31 0 01-1.35 1.28 1.24 1.24 0 01-1-.58L135.58 29l-4.86 4.86v4.9a1.27 1.27 0 11-2.54 0V18.5zM60.46 28L55.29 6.65C54.93 4.3 52.69 0 46.69 0a1.5 1.5 0 000 3c4.85 0 5.57 3.73 5.64 4.14l4.76 19.7H55a12 12 0 00-23.85 0h-1.8a12 12 0 00-23.86 0H3.42l4.77-19.7C8.25 6.73 9 3 13.83 3a1.5 1.5 0 000-3c-6 0-8.24 4.3-8.6 6.65L.05 28a1.42 1.42 0 001.43 1.82h4a12 12 0 0023.85 0h1.81a12 12 0 0023.86 0h4A1.41 1.41 0 0060.46 28zm-34.15 1.84a9 9 0 01-17.92-1.5 9.29 9.29 0 01.13-1.5 9 9 0 0117.79 0 8.29 8.29 0 01.14 1.5 8.12 8.12 0 01-.14 1.5zm25.68 0a9 9 0 01-17.93-1.5 9.3 9.3 0 01.14-1.5 9 9 0 0117.79 0 9.3 9.3 0 01.14 1.5 9.09 9.09 0 01-.13 1.5z"/></symbol></svg>