<svg id="Слой_1" data-name="Слой 1" xmlns="http://www.w3.org/2000/svg" viewBox="0 0 23 26"><defs></defs><title>icon-vk1</title><path class="cls-1" d="M22,17.82A7,7,0,0,1,21.29,21a6.59,6.59,0,0,1-2,2.34,9.39,9.39,0,0,1-3.21,1.56,17.77,17.77,0,0,1-4.45.46H.86V.68h9.6a35,35,0,0,1,4.37.19,9.27,9.27,0,0,1,2.75.88,4.92,4.92,0,0,1,2.1,1.92,5.43,5.43,0,0,1,.69,2.75,5.43,5.43,0,0,1-.95,3.16,6.16,6.16,0,0,1-2.67,2.14v.13a6.89,6.89,0,0,1,3.84,2A5.58,5.58,0,0,1,22,17.82ZM13.85,7.66a2.79,2.79,0,0,0-.31-1.22,1.94,1.94,0,0,0-1.09-.92,5.51,5.51,0,0,0-1.73-.29l-2.92,0H7.21v5.23h1c1,0,1.87,0,2.58,0a5,5,0,0,0,1.67-.33,2.09,2.09,0,0,0,1.13-1A3.44,3.44,0,0,0,13.85,7.66Zm1.54,10.06a3,3,0,0,0-.46-1.81,2.7,2.7,0,0,0-1.55-1,8.16,8.16,0,0,0-2.05-.23l-2.73,0H7.21v6.16h4.3a5.53,5.53,0,0,0,2.14-.44A2.6,2.6,0,0,0,15,19.31,3.28,3.28,0,0,0,15.39,17.72Z"/></svg>