<?xml version="1.0" encoding="utf-8"?>
<!-- Generator: Adobe Illustrator 22.1.0, SVG Export Plug-In . SVG Version: 6.00 Build 0)  -->
<svg version="1.1" id="Layer_1" xmlns="http://www.w3.org/2000/svg" xmlns:xlink="http://www.w3.org/1999/xlink" x="0px" y="0px"
	 viewBox="0 0 512 512" style="enable-background:new 0 0 512 512;" xml:space="preserve">
<title>Artboard 1</title>
<path class="st0" d="M480,0H32C14.3,0,0,14.3,0,32v448c0,17.7,14.3,32,32,32h448c17.7,0,32-14.3,32-32V32C512,14.3,497.7,0,480,0z
	 M192,256c0,0,5.1-64,64-64s64,64,64,64s1.8,64-64,64S192,256,192,256z M448,448H64V224h68.5c-18.6,68.2,21.5,138.6,89.7,157.2
	c68.2,18.6,138.6-21.5,157.2-89.7c6-22.1,6-45.4,0-67.5H448V448z M448,160h-96V64h96V160z"/>
</svg>
